<!-- Created with Inkscape (http://www.inkscape.org/) --><svg xmlns:inkscape="http://www.inkscape.org/namespaces/inkscape" xmlns:sodipodi="http://sodipodi.sourceforge.net/DTD/sodipodi-0.dtd" xmlns="http://www.w3.org/2000/svg" xmlns:svg="http://www.w3.org/2000/svg" width="100" height="128" viewBox="0 0 100 128" version="1.1" id="svg5" sodipodi:docname="input.svg">
  <sodipodi:namedview id="namedview7" pagecolor="#ffffff" bordercolor="#000000" borderopacity="0.25" inkscape:showpageshadow="2" inkscape:pageopacity="0.0" inkscape:pagecheckerboard="0" inkscape:deskcolor="#d1d1d1" inkscape:document-units="mm" showgrid="false" inkscape:zoom="0.72515432" inkscape:cx="237.8804" inkscape:cy="561.94935" inkscape:window-width="1920" inkscape:window-height="1001" inkscape:window-x="-9" inkscape:window-y="-9" inkscape:window-maximized="1" inkscape:current-layer="layer1"/>
  <defs id="defs2"/>
  <g inkscape:label="Layer 1" inkscape:groupmode="layer" id="layer1">
    <circle cx="30" cy="35.6" r="20" style="stroke:green;fill:none;stroke-linecap:round;stroke-linejoin:round;stroke-width:10" id="circle1599"/>
    <line x1="30" y1="35.6" x2="38" y2="43.6" style="stroke:green;stroke-linecap:round;stroke-linejoin:round;stroke-width:5" id="line9913"/>
    <line x1="30" y1="35.6" x2="30" y2="27.6" style="stroke:green;stroke-linecap:round;stroke-linejoin:round;stroke-width:5" id="line9387"/>
    <line x1="40" y1="55.6005846" x2="80" y2="55.6005846" style="stroke:green;stroke-linecap:round;stroke-linejoin:round;stroke-width:5" id="line6715"/>
    <line x1="40" y1="69.80051152" x2="80" y2="69.80051152" style="stroke:green;stroke-linecap:round;stroke-linejoin:round;stroke-width:5" id="line5656"/>
    <line x1="40" y1="84.00043845" x2="80" y2="84.00043845" style="stroke:green;stroke-linecap:round;stroke-linejoin:round;stroke-width:5" id="line207"/>
    <line x1="40" y1="98.20036537" x2="80" y2="98.20036537" style="stroke:green;stroke-linecap:round;stroke-linejoin:round;stroke-width:5" id="line3590"/>
    <path id="path1116" style="stroke:green;fill:none;stroke-linecap:round;stroke-linejoin:round;stroke-width:10" d="M 30 15.599609 A 20 20 0 0 0 30 55.552734 L 30 112.40039 L 90 112.40039 L 90 35.599609 L 50 35.599609 A 20 20 0 0 0 30 15.599609 z "/>
    <circle cx="30" cy="35.6" r="20" style="stroke:green;fill:none;stroke-linecap:round;stroke-linejoin:round;stroke-width:10" id="circle666"/>
    <line x1="30" y1="35.6" x2="38" y2="43.6" style="stroke:green;stroke-linecap:round;stroke-linejoin:round;stroke-width:5" id="line6837"/>
    <line x1="30" y1="35.6" x2="30" y2="27.6" style="stroke:green;stroke-linecap:round;stroke-linejoin:round;stroke-width:5" id="line7193"/>
    <line x1="40" y1="55.6005846" x2="80" y2="55.6005846" style="stroke:green;stroke-linecap:round;stroke-linejoin:round;stroke-width:5" id="line7445"/>
    <line x1="40" y1="69.80051152" x2="80" y2="69.80051152" style="stroke:green;stroke-linecap:round;stroke-linejoin:round;stroke-width:5" id="line324"/>
    <line x1="40" y1="84.00043845" x2="80" y2="84.00043845" style="stroke:green;stroke-linecap:round;stroke-linejoin:round;stroke-width:5" id="line2126"/>
    <line x1="40" y1="98.20036537" x2="80" y2="98.20036537" style="stroke:green;stroke-linecap:round;stroke-linejoin:round;stroke-width:5" id="line9875"/>
    <path id="path9362" style="stroke:green;fill:none;stroke-linecap:round;stroke-linejoin:round;stroke-width:10" d="M 30 15.599609 A 20 20 0 0 0 30 55.552734 L 30 112.40039 L 90 112.40039 L 90 35.599609 L 50 35.599609 A 20 20 0 0 0 30 15.599609 z "/>
  </g>
</svg>