<!-- Created with Inkscape (http://www.inkscape.org/) --><svg xmlns:inkscape="http://www.inkscape.org/namespaces/inkscape" xmlns:sodipodi="http://sodipodi.sourceforge.net/DTD/sodipodi-0.dtd" xmlns="http://www.w3.org/2000/svg" xmlns:svg="http://www.w3.org/2000/svg" width="150" height="128" viewBox="0 0 128 128" version="1.1" id="svg5" sodipodi:docname="input.svg">
  <sodipodi:namedview id="namedview7" pagecolor="#ffffff" bordercolor="#000000" borderopacity="0.25" inkscape:showpageshadow="2" inkscape:pageopacity="0.0" inkscape:pagecheckerboard="0" inkscape:deskcolor="#d1d1d1" inkscape:document-units="mm" showgrid="false" inkscape:zoom="0.72515432" inkscape:cx="237.8804" inkscape:cy="561.94935" inkscape:window-width="1920" inkscape:window-height="1001" inkscape:window-x="-9" inkscape:window-y="-9" inkscape:window-maximized="1" inkscape:current-layer="layer1"/>
  <defs id="defs2"/>
  <g inkscape:label="Layer 1" inkscape:groupmode="layer" id="layer1">
    <path id="path181" style="stroke:red;fill:red;stroke-linecap:round;stroke-width:10;stroke-linejoin:round" d="M 79 14.769531 L 41.134766 36.630859 L 41.134766 93.242188 L 40.916016 93.242188 L 79 115.23047 L 79 14.769531 z "/>
  <path d="M 5.113 36.059 h36.021v57.184h-36.021 z" style="stroke:red;fill:red;stroke-linecap:round;stroke-width:10;stroke-linejoin:round"/><path sodipodi:cx="79.0" sodipodi:cy="65.0000005" sodipodi:rx="50.0" sodipodi:ry="50.0" sodipodi:type="arc" sodipodi:start="5.235987755982989" sodipodi:end="1.0471975511965976" d="M 104 21.6987 A 50 50 0 0 1 129 65 A 50 50 0 0 1 104 108.301" sodipodi:arc-type="arc" sodipodi:open="true" style="stroke:red;fill:none;stroke-linecap:round;stroke-width:10;stroke-linejoin:round"/><path sodipodi:cx="79.0" sodipodi:cy="65.0000005" sodipodi:rx="33.333333333333336" sodipodi:ry="33.333333333333336" sodipodi:type="arc" sodipodi:start="5.235987755982989" sodipodi:end="1.0471975511965976" d="M 95.6667 36.1325 A 33.3333 33.3333 0 0 1 112.333 65 A 33.3333 33.3333 0 0 1 95.6667 93.8675" sodipodi:arc-type="arc" sodipodi:open="true" style="stroke:red;fill:none;stroke-linecap:round;stroke-width:10;stroke-linejoin:round"/><path sodipodi:cx="79.0" sodipodi:cy="65.0000005" sodipodi:rx="16.666666666666668" sodipodi:ry="16.666666666666668" sodipodi:type="arc" sodipodi:start="5.235987755982989" sodipodi:end="1.0471975511965976" d="M 87.3333 50.5662 A 16.6667 16.6667 0 0 1 95.6667 65 A 16.6667 16.6667 0 0 1 87.3333 79.4338" sodipodi:arc-type="arc" sodipodi:open="true" style="stroke:red;fill:none;stroke-linecap:round;stroke-width:10;stroke-linejoin:round"/><line x1="5.13" y1="10" x2="120" y2="120" style="stroke:red;stroke-linecap:round;stroke-width:10;stroke-linejoin:round;fill:red"/></g>
</svg>