<!-- Created with Inkscape (http://www.inkscape.org/) --><svg xmlns:inkscape="http://www.inkscape.org/namespaces/inkscape" xmlns:sodipodi="http://sodipodi.sourceforge.net/DTD/sodipodi-0.dtd" xmlns="http://www.w3.org/2000/svg" xmlns:svg="http://www.w3.org/2000/svg" width="100" height="128" viewBox="0 0 100 128" version="1.1" id="svg5" sodipodi:docname="template_thrash.svg" inkscape:version="1.2.2 (732a01da63, 2022-12-09)">
  <sodipodi:namedview id="namedview7" pagecolor="#ffffff" bordercolor="#000000" borderopacity="0.25" inkscape:showpageshadow="2" inkscape:pageopacity="0.0" inkscape:pagecheckerboard="0" inkscape:deskcolor="#d1d1d1" inkscape:document-units="mm" showgrid="false" inkscape:zoom="1.4503086" inkscape:cx="8.9636095" inkscape:cy="175.47989" inkscape:window-width="1920" inkscape:window-height="1001" inkscape:window-x="-9" inkscape:window-y="-9" inkscape:window-maximized="1" inkscape:current-layer="layer1" showguides="true"/>
  <defs id="defs2"/>
  <g inkscape:label="Layer 1" inkscape:groupmode="layer" id="layer1">
    <path style="fill:red;stroke-width:0.512837;stroke:red" d="m 20.376039,110.21402 c -0.972393,-0.91641 -1.546494,-1.97639 -1.550425,-2.86265 -0.0032,-0.77406 -0.594931,-12.945085 -1.314445,-27.046728 -0.719509,-14.101645 -1.311012,-26.153605 -1.31444,-26.78214 -0.0032,-0.628545 0.577261,-1.692695 1.29043,-2.364798 l 1.296669,-1.222006 h 30.962753 c 19.186474,0 31.330249,0.185361 31.929015,0.487344 0.531423,0.26804 1.188569,1.108168 1.460313,1.866948 0.465731,1.300486 -1.596243,51.19419 -2.286554,55.32763 -0.153743,0.9205 -0.84725,2.20869 -1.541159,2.86265 l -1.261666,1.189 H 49.983375 21.920221 Z M 36.024763,98.00099 37.321431,96.778998 V 80.055713 63.332436 l -1.296668,-1.221998 c -1.679313,-1.582605 -4.000701,-1.590615 -5.937637,-0.02047 l -1.48221,1.201506 V 80.055711 96.81995 l 1.48221,1.201515 c 1.936936,1.570133 4.258324,1.562133 5.937637,-0.02043 z m 16.904746,0 1.296685,-1.221992 V 80.055713 63.332436 l -1.296685,-1.221998 c -0.81736,-0.770297 -1.900232,-1.222005 -2.92951,-1.222005 -1.029272,0 -2.112154,0.451708 -2.929514,1.222005 l -1.296675,1.221998 v 16.723277 16.723285 l 1.296675,1.221992 c 0.81736,0.770297 1.900242,1.222002 2.929514,1.222002 1.029278,0 2.11215,-0.451705 2.92951,-1.222002 z m 16.983371,0.02043 1.482215,-1.201515 V 80.055705 63.291468 L 69.91288,62.089947 c -1.936928,-1.570132 -4.258325,-1.56213 -5.937644,0.02047 l -1.296668,1.22203 V 80.055724 96.77901 l 1.296668,1.221992 c 1.679319,1.5826 4.000716,1.590619 5.937644,0.02043 z M 16.718758,41.62414 c -0.435825,-0.153256 -1.327287,-0.737253 -1.981026,-1.297766 -1.062047,-0.910598 -1.188616,-1.489404 -1.188616,-5.435626 0,-4.025338 0.114847,-4.524747 1.296675,-5.638517 1.244502,-1.172835 1.574609,-1.221996 8.204818,-1.221996 5.074488,0 6.957846,-0.165191 7.095377,-0.622316 0.102965,-0.342267 0.447057,-1.528572 0.764623,-2.636233 0.728125,-2.539619 3.753501,-5.903458 6.599654,-7.337961 2.044647,-1.030544 2.865082,-1.102998 12.489736,-1.102998 9.62465,0 10.445086,0.07248 12.489748,1.102998 2.846148,1.434503 5.871513,4.798342 6.599645,7.337961 0.31756,1.107661 0.661662,2.293966 0.764629,2.636233 0.137567,0.457134 2.020883,0.622316 7.095365,0.622316 6.630209,0 6.960332,0.0492 8.204829,1.221996 1.181822,1.11377 1.296669,1.613179 1.296669,5.638517 0,4.10374 -0.09644,4.501976 -1.362994,5.623451 l -1.362999,1.206955 -33.106864,0.09083 C 32.409257,41.861904 17.154585,41.777474 16.718758,41.62415 Z M 61.093746,27.509749 c 0,-0.28626 -0.583494,-1.070379 -1.296669,-1.742474 -1.269273,-1.196176 -1.476323,-1.221996 -9.797078,-1.221996 -8.320754,0 -8.527805,0.02584 -9.797072,1.221996 -0.713169,0.672095 -1.296674,1.456214 -1.296674,1.742474 0,0.345559 3.728539,0.520486 11.093746,0.520486 7.365207,0 11.093747,-0.174935 11.093747,-0.520486 z" id="path302"/>
  </g>
</svg>